<svg width="142" height="200" viewBox="0 0 142 200" fill="none" xmlns="http://www.w3.org/2000/svg">
<g clip-path="url(#clip0_5511_2019)" filter="url(#filter0_b_5511_2019)">
<rect width="142" height="200" rx="10" fill="#D9D9D9"/>
<rect x="63.1844" y="-21" width="117.726" height="24" transform="rotate(30.5096 63.1844 -21)" fill="#CC1717"/>
<g filter="url(#filter1_i_5511_2019)">
<path d="M89.3029 8.83672C89.3916 8.70221 89.4496 8.56885 89.4767 8.43663C89.5069 8.30638 89.4997 8.1644 89.4553 8.01068C89.4108 7.85697 89.3226 7.67863 89.1905 7.47569C89.0634 7.27173 88.8864 7.03275 88.6596 6.75877C88.4119 6.45807 88.1949 6.16269 88.0088 5.87261C87.8276 5.58152 87.6911 5.29418 87.5993 5.01059C87.5096 4.72402 87.4779 4.44362 87.5044 4.16938C87.5328 3.89216 87.6357 3.61905 87.8132 3.35003C87.9886 3.08401 88.2036 2.87837 88.4582 2.73312C88.7157 2.58984 88.9998 2.50701 89.3105 2.48464C89.6262 2.46124 89.9547 2.49986 90.2958 2.60048C90.6389 2.69811 90.9823 2.86029 91.3261 3.08703C91.8103 3.40643 92.1681 3.77114 92.3995 4.18116C92.6339 4.59316 92.7457 5.01221 92.7349 5.43831C92.7271 5.86639 92.6029 6.26276 92.3624 6.62742L91.2459 5.89102C91.3879 5.67581 91.4668 5.45545 91.4826 5.22993C91.5033 5.00339 91.4525 4.78118 91.3303 4.56329C91.2111 4.34737 91.011 4.14675 90.73 3.96142C90.464 3.78594 90.2162 3.6804 89.9866 3.64477C89.757 3.60915 89.5535 3.6315 89.3761 3.71182C89.1988 3.79214 89.0529 3.91898 88.9385 4.09235C88.8577 4.2149 88.8122 4.34572 88.8019 4.4848C88.7937 4.6209 88.8192 4.77074 88.8786 4.93431C88.94 5.0949 89.0342 5.27072 89.1613 5.46177C89.2883 5.65282 89.4487 5.86159 89.6425 6.08806C89.9332 6.43423 90.1697 6.7618 90.352 7.07076C90.5362 7.37674 90.6638 7.67107 90.7347 7.95377C90.8056 8.23646 90.8168 8.512 90.7685 8.78038C90.7221 9.04577 90.6122 9.30999 90.4387 9.57302C90.2573 9.84801 90.0384 10.0596 89.7819 10.2079C89.5273 10.3531 89.2457 10.4354 88.9369 10.4548C88.6331 10.4732 88.3101 10.4296 87.968 10.324C87.6308 10.2174 87.2873 10.0488 86.9376 9.81809C86.6238 9.61107 86.342 9.36516 86.0923 9.08036C85.8457 8.79754 85.6545 8.48911 85.5187 8.15509C85.385 7.81809 85.3297 7.47275 85.3528 7.11908C85.3779 6.76243 85.5047 6.41073 85.7334 6.06401L86.8588 6.80632C86.7188 7.01854 86.6354 7.22304 86.6086 7.41981C86.5847 7.61855 86.607 7.80912 86.6754 7.99152C86.7458 8.17093 86.8529 8.34023 86.9967 8.49942C87.1435 8.66058 87.317 8.80721 87.5173 8.93931C87.7803 9.11281 88.0247 9.22037 88.2503 9.26197C88.4789 9.30554 88.6824 9.28964 88.8608 9.21428C89.0392 9.13893 89.1866 9.01307 89.3029 8.83672ZM92.7084 13.6246C92.3497 13.388 92.0638 13.1158 91.8508 12.8079C91.6427 12.4991 91.507 12.1715 91.4438 11.8253C91.3835 11.4809 91.3942 11.1298 91.4758 10.7719C91.5575 10.414 91.7078 10.0691 91.9266 9.73732L92.0449 9.55798C92.2953 9.17837 92.5773 8.87111 92.891 8.63618C93.2047 8.40126 93.5321 8.23977 93.8733 8.15169C94.2165 8.06063 94.561 8.04554 94.9069 8.10641C95.2529 8.16728 95.5827 8.30123 95.8966 8.50825C96.2433 8.73696 96.5083 8.99536 96.6914 9.28346C96.8746 9.57157 96.9813 9.87792 97.0117 10.2025C97.0471 10.5261 97.011 10.8605 96.9034 11.2056C96.7989 11.5527 96.6312 11.9011 96.4005 12.2509L96.0959 12.7127L92.3477 10.2403L92.8593 9.46461L95.5405 11.2331L95.5967 11.148C95.7189 10.9497 95.8003 10.7418 95.8409 10.5241C95.8845 10.3084 95.8691 10.1009 95.7947 9.90161C95.7202 9.70236 95.5634 9.52386 95.3243 9.36613C95.1449 9.24784 94.9594 9.18121 94.7676 9.16626C94.5809 9.15029 94.3938 9.18349 94.2065 9.26584C94.0192 9.34819 93.8331 9.47424 93.6482 9.64398C93.4683 9.8127 93.2955 10.0226 93.1299 10.2737L93.0116 10.453C92.8717 10.6652 92.7699 10.8812 92.7064 11.101C92.6479 11.3198 92.6311 11.5339 92.656 11.7433C92.6808 11.9528 92.7483 12.1496 92.8585 12.3338C92.9706 12.515 93.1298 12.6736 93.336 12.8096C93.5961 12.9811 93.8622 13.0816 94.1345 13.1111C94.4067 13.1405 94.6807 13.1089 94.9563 13.0162L95.162 13.9433C94.9568 14.0267 94.7242 14.0834 94.4641 14.1135C94.2061 14.1406 93.9274 14.1176 93.6281 14.0446C93.3318 13.9736 93.0252 13.8336 92.7084 13.6246ZM99.599 12.4947L97.0497 16.3595L95.9692 15.6468L99.1691 10.7956L100.187 11.4669L99.599 12.4947ZM98.5931 13.6392L98.2284 13.3922C98.4493 13.0575 98.6952 12.7757 98.9662 12.5469C99.2372 12.3182 99.5224 12.1524 99.8218 12.0497C100.123 11.9439 100.431 11.9131 100.745 11.9572C101.064 12.0004 101.382 12.1264 101.699 12.3354C101.92 12.4813 102.1 12.6473 102.239 12.8333C102.383 13.0183 102.477 13.2239 102.521 13.4502C102.567 13.6783 102.556 13.9237 102.485 14.1862C102.418 14.4507 102.284 14.7354 102.083 15.0403L99.9506 18.273L98.8701 17.5602L100.94 14.4217C101.096 14.1856 101.182 13.9766 101.199 13.7948C101.219 13.6149 101.182 13.4532 101.088 13.3097C100.999 13.1651 100.865 13.0337 100.686 12.9154C100.482 12.7813 100.283 12.7058 100.089 12.6889C99.8969 12.674 99.7118 12.7042 99.5334 12.7795C99.355 12.8549 99.1867 12.9669 99.0285 13.1157C98.8704 13.2644 98.7252 13.439 98.5931 13.6392ZM101.791 15.3367L101.21 15.1146C101.404 14.8217 101.626 14.5718 101.878 14.365C102.136 14.1572 102.409 14.0069 102.697 13.9141C102.991 13.8203 103.293 13.7945 103.604 13.8366C103.915 13.8788 104.223 14.0005 104.528 14.2016C104.776 14.3652 104.974 14.5455 105.123 14.7424C105.277 14.9383 105.376 15.1533 105.419 15.3875C105.461 15.6216 105.443 15.8775 105.363 16.1549C105.285 16.4294 105.139 16.7281 104.926 17.0509L102.856 20.1894L101.771 19.4737L103.844 16.3307C104.006 16.0856 104.095 15.8721 104.112 15.6903C104.132 15.5105 104.095 15.3527 104 15.2171C103.906 15.0786 103.77 14.9501 103.591 14.8318C103.424 14.7214 103.255 14.6552 103.085 14.6332C102.92 14.6102 102.758 14.6254 102.598 14.6788C102.44 14.7292 102.293 14.8099 102.155 14.9208C102.021 15.0337 101.899 15.1723 101.791 15.3367ZM112.455 23.4709L113.575 24.2102C113.258 24.614 112.887 24.9162 112.463 25.1169C112.04 25.3147 111.582 25.3879 111.089 25.3367C110.595 25.2855 110.085 25.0864 109.559 24.7394C109.155 24.4732 108.839 24.1619 108.611 23.8055C108.385 23.4461 108.245 23.0575 108.19 22.6397C108.137 22.2188 108.175 21.7782 108.303 21.3177C108.433 20.8593 108.654 20.3954 108.963 19.9261L109.321 19.3836C109.631 18.9143 109.972 18.5303 110.345 18.2315C110.721 17.9347 111.114 17.7287 111.525 17.6135C111.937 17.4953 112.354 17.4719 112.774 17.5433C113.198 17.6167 113.614 17.7885 114.023 18.0586C114.544 18.4017 114.92 18.7871 115.152 19.215C115.385 19.6429 115.488 20.0908 115.463 20.5587C115.44 21.0286 115.308 21.4965 115.065 21.9624L113.944 21.2231C114.099 20.9224 114.192 20.6384 114.222 20.3711C114.256 20.1058 114.21 19.8567 114.085 19.624C113.961 19.3882 113.743 19.1668 113.429 18.9598C113.172 18.7902 112.916 18.6902 112.662 18.6596C112.407 18.6291 112.155 18.6641 111.904 18.7647C111.653 18.8652 111.405 19.0298 111.16 19.2584C110.92 19.486 110.686 19.7732 110.457 20.1199L110.093 20.6714C109.876 21.0002 109.707 21.3178 109.587 21.6243C109.471 21.9298 109.41 22.2176 109.403 22.4877C109.4 22.7599 109.457 23.0103 109.577 23.2392C109.696 23.468 109.887 23.6692 110.15 23.8427C110.47 24.0536 110.762 24.1734 111.026 24.2019C111.294 24.2323 111.542 24.1839 111.772 24.0567C112.007 23.9284 112.234 23.7331 112.455 23.4709ZM116.882 28.0452L118.408 25.7316C118.523 25.5583 118.59 25.3881 118.61 25.2212C118.63 25.0542 118.598 24.894 118.515 24.7405C118.435 24.5889 118.299 24.4501 118.108 24.3239C117.932 24.2075 117.759 24.1369 117.592 24.1119C117.424 24.0869 117.27 24.1015 117.131 24.1558C116.993 24.2102 116.881 24.3016 116.796 24.4301L115.72 23.7203C115.846 23.529 116.015 23.3743 116.226 23.256C116.437 23.1378 116.677 23.0666 116.946 23.0425C117.215 23.0183 117.498 23.0467 117.797 23.1277C118.095 23.2086 118.397 23.3497 118.702 23.5508C119.066 23.7913 119.349 24.0655 119.549 24.3734C119.752 24.6833 119.852 25.0155 119.85 25.37C119.853 25.7236 119.732 26.0857 119.487 26.4563L118.065 28.6129C117.919 28.8341 117.803 29.0427 117.716 29.2388C117.635 29.4338 117.582 29.6153 117.557 29.7833L117.509 29.855L116.402 29.1246C116.428 28.9745 116.485 28.7999 116.574 28.6008C116.667 28.4008 116.77 28.2155 116.882 28.0452ZM118.343 26.1714L117.912 26.8454L117.136 26.3338C116.936 26.2017 116.747 26.1048 116.569 26.0431C116.393 25.9784 116.23 25.9484 116.081 25.9531C115.932 25.9578 115.799 25.9942 115.681 26.0623C115.563 26.1304 115.462 26.2287 115.377 26.3573C115.292 26.4858 115.244 26.6236 115.233 26.7706C115.224 26.9147 115.256 27.054 115.33 27.1887C115.407 27.3254 115.528 27.448 115.693 27.5564C115.914 27.7023 116.136 27.7846 116.36 27.8034C116.588 27.8212 116.794 27.7958 116.976 27.7274C117.16 27.656 117.295 27.5625 117.38 27.4468L117.413 28.1573C117.297 28.2562 117.148 28.3473 116.969 28.4306C116.79 28.5139 116.587 28.5735 116.362 28.6093C116.142 28.6442 115.908 28.6379 115.66 28.5904C115.416 28.5449 115.168 28.4394 114.917 28.2738C114.6 28.0648 114.359 27.8157 114.194 27.5265C114.031 27.2343 113.95 26.9343 113.951 26.6264C113.955 26.3156 114.047 26.0226 114.228 25.7476C114.398 25.4906 114.596 25.295 114.821 25.1608C115.052 25.0256 115.306 24.9528 115.583 24.9425C115.863 24.9342 116.163 24.9864 116.484 25.099C116.806 25.2087 117.143 25.3798 117.496 25.6125L118.343 26.1714ZM122.543 27.5514L118.728 33.3352L117.647 32.6225L122.077 25.9061L123.073 26.5627L122.543 27.5514ZM124.748 31.0846L124.686 31.1788C124.454 31.5315 124.196 31.8312 123.913 32.0779C123.635 32.3235 123.342 32.5052 123.032 32.6229C122.728 32.7396 122.419 32.7823 122.105 32.7511C121.791 32.7199 121.481 32.6037 121.177 32.4026C120.875 32.2035 120.647 31.9737 120.492 31.7132C120.343 31.4518 120.259 31.1667 120.239 30.8579C120.22 30.5491 120.254 30.2242 120.342 29.8832C120.435 29.5411 120.572 29.1898 120.754 28.8294L120.993 28.4662C121.267 28.1362 121.546 27.8567 121.829 27.6279C122.116 27.4011 122.407 27.2343 122.7 27.1276C122.993 27.0209 123.29 26.9847 123.589 27.019C123.888 27.0533 124.187 27.169 124.486 27.3661C124.791 27.5672 125.022 27.8055 125.179 28.0808C125.338 28.3531 125.427 28.6516 125.444 28.9763C125.464 29.2979 125.413 29.6378 125.293 29.996C125.174 30.3511 124.993 30.714 124.748 31.0846ZM123.606 30.466L123.668 30.3719C123.816 30.1477 123.932 29.9262 124.016 29.7073C124.102 29.4854 124.149 29.2716 124.156 29.066C124.163 28.8604 124.123 28.6709 124.035 28.4975C123.953 28.3231 123.815 28.1719 123.621 28.0437C123.429 27.9175 123.243 27.842 123.062 27.817C122.883 27.7891 122.71 27.8014 122.543 27.8538C122.375 27.9063 122.216 27.992 122.064 28.1109C121.915 28.2269 121.771 28.3661 121.634 28.5287L121.061 29.3985C120.954 29.6373 120.886 29.875 120.854 30.1115C120.822 30.3481 120.85 30.5724 120.938 30.7845C121.03 30.9956 121.202 31.1839 121.453 31.3495C121.647 31.4777 121.841 31.5453 122.033 31.5523C122.226 31.5593 122.414 31.5181 122.597 31.4288C122.786 31.3385 122.965 31.21 123.135 31.0434C123.305 30.8767 123.462 30.6842 123.606 30.466ZM127.832 35.2677L129.358 32.9542C129.472 32.7809 129.54 32.6107 129.56 32.4438C129.58 32.2768 129.548 32.1166 129.465 31.963C129.385 31.8115 129.249 31.6726 129.058 31.5464C128.881 31.4301 128.709 31.3595 128.541 31.3345C128.373 31.3095 128.22 31.3241 128.081 31.3784C127.942 31.4327 127.831 31.5241 127.746 31.6527L126.67 30.9429C126.796 30.7516 126.964 30.5968 127.175 30.4786C127.386 30.3604 127.626 30.2892 127.895 30.265C128.164 30.2409 128.448 30.2693 128.746 30.3503C129.045 30.4312 129.346 30.5723 129.651 30.7734C130.016 31.0139 130.298 31.2881 130.498 31.596C130.702 31.9058 130.802 32.2381 130.8 32.5926C130.802 32.9461 130.682 33.3082 130.437 33.6789L129.015 35.8355C128.869 36.0567 128.753 36.2653 128.666 36.4614C128.585 36.6564 128.531 36.8379 128.506 37.0059L128.459 37.0776L127.352 36.3471C127.378 36.197 127.435 36.0225 127.523 35.8234C127.617 35.6233 127.72 35.4381 127.832 35.2677ZM129.293 33.394L128.861 34.068L128.086 33.5563C127.886 33.4242 127.696 33.3273 127.518 33.2656C127.342 33.2009 127.18 33.171 127.031 33.1757C126.882 33.1804 126.748 33.2168 126.631 33.2849C126.513 33.353 126.411 33.4513 126.327 33.5798C126.242 33.7084 126.194 33.8461 126.183 33.9932C126.173 34.1372 126.206 34.2766 126.28 34.4113C126.357 34.548 126.478 34.6705 126.642 34.779C126.864 34.9249 127.086 35.0072 127.309 35.026C127.538 35.0437 127.743 35.0184 127.926 34.95C128.11 34.8786 128.245 34.785 128.33 34.6694L128.363 35.3798C128.246 35.4787 128.098 35.5698 127.919 35.6531C127.739 35.7364 127.537 35.796 127.312 35.8319C127.092 35.8667 126.858 35.8604 126.61 35.813C126.366 35.7675 126.118 35.662 125.867 35.4963C125.55 35.2873 125.309 35.0383 125.144 34.7491C124.98 34.4569 124.899 34.1569 124.901 33.849C124.904 33.5381 124.997 33.2452 125.178 32.9702C125.348 32.7132 125.545 32.5175 125.771 32.3834C126.002 32.2482 126.256 32.1754 126.533 32.1651C126.813 32.1568 127.113 32.2089 127.433 32.3216C127.756 32.4312 128.093 32.6024 128.446 32.835L129.293 33.394Z" fill="#EEEEF0"/>
</g>
</g>
<defs>
<filter id="filter0_b_5511_2019" x="-4" y="-4" width="150" height="208" filterUnits="userSpaceOnUse" color-interpolation-filters="sRGB">
<feFlood flood-opacity="0" result="BackgroundImageFix"/>
<feGaussianBlur in="BackgroundImageFix" stdDeviation="2"/>
<feComposite in2="SourceAlpha" operator="in" result="effect1_backgroundBlur_5511_2019"/>
<feBlend mode="normal" in="SourceGraphic" in2="effect1_backgroundBlur_5511_2019" result="shape"/>
</filter>
<filter id="filter1_i_5511_2019" x="83.2019" y="1.41895" width="49.6223" height="41.5239" filterUnits="userSpaceOnUse" color-interpolation-filters="sRGB">
<feFlood flood-opacity="0" result="BackgroundImageFix"/>
<feBlend mode="normal" in="SourceGraphic" in2="BackgroundImageFix" result="shape"/>
<feColorMatrix in="SourceAlpha" type="matrix" values="0 0 0 0 0 0 0 0 0 0 0 0 0 0 0 0 0 0 127 0" result="hardAlpha"/>
<feOffset dy="4"/>
<feGaussianBlur stdDeviation="2"/>
<feComposite in2="hardAlpha" operator="arithmetic" k2="-1" k3="1"/>
<feColorMatrix type="matrix" values="0 0 0 0 0 0 0 0 0 0 0 0 0 0 0 0 0 0 0.25 0"/>
<feBlend mode="normal" in2="shape" result="effect1_innerShadow_5511_2019"/>
</filter>
<clipPath id="clip0_5511_2019">
<rect width="142" height="200" fill="white"/>
</clipPath>
</defs>
</svg>
